HIERARCHY
ROOT Hips
{
	OFFSET 0.00000 0.00000 0.00000
	CHANNELS 6 Xposition Yposition Zposition Zrotation Yrotation Xrotation 
	JOINT LHipJoint
	{
		OFFSET 0 0 0
		CHANNELS 3 Zrotation Yrotation Xrotation
		JOINT LeftUpLeg
		{
			OFFSET 1.58895 -1.83665 0.71753
			CHANNELS 3 Zrotation Yrotation Xrotation
			JOINT LeftLeg
			{
				OFFSET 2.50528 -6.88321 0.00000
				CHANNELS 3 Zrotation Yrotation Xrotation
				JOINT LeftFoot
				{
					OFFSET 2.63244 -7.23257 0.00000
					CHANNELS 3 Zrotation Yrotation Xrotation
					JOINT LeftToeBase
					{
						OFFSET 0.23691 -0.65090 1.72750
						CHANNELS 3 Zrotation Yrotation Xrotation
						End Site
						{
							OFFSET 0.00000 -0.00000 0.92561
						}
					}
				}
			}
		}
	}
	JOINT RHipJoint
	{
		OFFSET 0 0 0
		CHANNELS 3 Zrotation Yrotation Xrotation
		JOINT RightUpLeg
		{
			OFFSET -1.51435 -1.83665 0.71753
			CHANNELS 3 Zrotation Yrotation Xrotation
			JOINT RightLeg
			{
				OFFSET -2.54551 -6.99375 0.00000
				CHANNELS 3 Zrotation Yrotation Xrotation
				JOINT RightFoot
				{
					OFFSET -2.66027 -7.30903 0.00000
					CHANNELS 3 Zrotation Yrotation Xrotation
					JOINT RightToeBase
					{
						OFFSET -0.22981 -0.63138 2.03959
						CHANNELS 3 Zrotation Yrotation Xrotation
						End Site
						{
							OFFSET -0.00000 -0.00000 1.07060
						}
					}
				}
			}
		}
	}
	JOINT LowerBack
	{
		OFFSET 0 0 0
		CHANNELS 3 Zrotation Yrotation Xrotation
		JOINT Spine
		{
			OFFSET -0.02651 1.86275 -0.11152
			CHANNELS 3 Zrotation Yrotation Xrotation
			JOINT Spine1
			{
				OFFSET 0.01019 1.86224 0.04087
				CHANNELS 3 Zrotation Yrotation Xrotation
				JOINT Neck
				{
					OFFSET 0 0 0
					CHANNELS 3 Zrotation Yrotation Xrotation
					JOINT Neck1
					{
						OFFSET -0.01926 1.80512 0.08867
						CHANNELS 3 Zrotation Yrotation Xrotation
						JOINT Head
						{
							OFFSET 0.05516 1.76451 -0.38475
							CHANNELS 3 Zrotation Yrotation Xrotation
							End Site
							{
								OFFSET 0.01592 1.82587 -0.14001
							}
						}
					}
				}
				JOINT LeftShoulder
				{
					OFFSET 0 0 0
					CHANNELS 3 Zrotation Yrotation Xrotation
					JOINT LeftArm
					{
						OFFSET 3.47116 1.51376 0.14491
						CHANNELS 3 Zrotation Yrotation Xrotation
						JOINT LeftForeArm
						{
							OFFSET 4.78095 -0.00000 0.00000
							CHANNELS 3 Zrotation Yrotation Xrotation
							JOINT LeftHand
							{
								OFFSET 3.58615 -0.00000 -0.00000
								CHANNELS 3 Zrotation Yrotation Xrotation
								JOINT LeftFingerBase
								{
									OFFSET 0 0 0
									CHANNELS 3 Zrotation Yrotation Xrotation
									JOINT LeftHandIndex1
									{
										OFFSET 0.65981 -0.00000 0.00000
										CHANNELS 3 Zrotation Yrotation Xrotation
										End Site
										{
											OFFSET 0.53196 -0.00000 0.00000
										}
									}
								}
								JOINT LThumb
								{
									OFFSET 0 0 0
									CHANNELS 3 Zrotation Yrotation Xrotation
									End Site
									{
										OFFSET 0.54008 -0.00000 0.54008
									}
								}
							}
						}
					}
				}
				JOINT RightShoulder
				{
					OFFSET 0 0 0
					CHANNELS 3 Zrotation Yrotation Xrotation
					JOINT RightArm
					{
						OFFSET -3.31725 1.61216 0.35156
						CHANNELS 3 Zrotation Yrotation Xrotation
						JOINT RightForeArm
						{
							OFFSET -4.48913 -0.00000 0.00000
							CHANNELS 3 Zrotation Yrotation Xrotation
							JOINT RightHand
							{
								OFFSET -3.70510 -0.00000 0.00000
								CHANNELS 3 Zrotation Yrotation Xrotation
								JOINT RightFingerBase
								{
									OFFSET 0 0 0
									CHANNELS 3 Zrotation Yrotation Xrotation
									JOINT RightHandIndex1
									{
										OFFSET -0.44914 -0.00000 0.00000
										CHANNELS 3 Zrotation Yrotation Xrotation
										End Site
										{
											OFFSET -0.36211 -0.00000 0.00000
										}
									}
								}
								JOINT RThumb
								{
									OFFSET 0 0 0
									CHANNELS 3 Zrotation Yrotation Xrotation
									End Site
									{
										OFFSET -0.36763 -0.00000 0.36763
									}
								}
							}
						}
					}
				}
			}
		}
	}
}
MOTION
Frames: 12
Frame Time: .0083333
-1.0457 18.1492 5.7524 0 0 0 0 0 0 -21 0 0 0 0 0 0 0 0 0 0 0 0 0 0 21 0 0 0 0 0 0 0 0 0 0 0 0 0 0 0 0 0 0 0 0 0 0 -16 0 0 21 0 0 11 0 0 0 -8 0 0 0 0 0 0 0 0 0 0 0 0 0 0 0 0 0 0 0 0 8 0 0 0 0 0 0 0 0 0 0 0 0 0 0 0 0 0
-1.0457 18.1492 5.7524 -3.9393 -2.6804 -0.5410 0.0000 0.0000 0.0000 -12.8792 -2.3698 19.9703 0.8703 -5.9482 -16.6343 -1.0180 18.2276 -12.2829 0.2823 -3.4174 -9.4430 0.0000 0.0000 0.0000 19.2556 -6.3163 7.8909 0.0000 -0.0000 0.0000 -0.7553 -1.1844 -16.8882 -0.1649 -2.6160 7.2114 2.3149 1.0164 2.0610 0.7949 1.4490 -1.3961 -0.5419 0.6892 -2.5521 -3.2689 -2.5390 -6.4569 2.8041 -3.5432 17.4391 1.1707 -1.7084 6.4653 -0.0000 -0.0000 0.0000 -92.8495 12.4123 23.4578 19.9701 -30.6063 -5.5161 -0.0000 -0.0000 11.1988 8.7341 -29.4255 -4.3164 -7.1250 0.0000 -0.0000 -12.8252 0.9093 12.9504 -0.0000 -0.0000 0.0000 91.8291 -18.3395 17.7160 -22.5732 33.6188 -6.9005 0.0000 0.0000 17.0850 -9.0422 -26.3053 4.0340 7.1250 -0.0000 -0.0000 22.2460 -55.1532 -5.7552
-1.0467 18.1496 5.7520 -3.8946 -2.6558 -0.5382 0.0000 0.0000 0.0000 -12.9275 -2.3552 19.9175 0.8647 -5.9295 -16.5800 -1.0157 18.2054 -12.2581 0.2827 -3.4193 -9.4484 0.0000 0.0000 0.0000 19.2071 -6.3363 7.8781 0.0000 0.0000 0.0000 -0.7549 -1.1982 -16.8890 -0.1570 -2.5531 7.0370 2.2588 1.0214 2.0352 0.7871 1.4528 -1.3959 -0.5182 0.6922 -2.5383 -3.2655 -2.5208 -6.4921 2.6466 -3.4900 17.4432 1.1236 -1.6943 6.4685 0.0000 -0.0000 0.0000 -92.8256 12.4413 23.5912 19.9825 -30.6213 -5.5224 -0.0000 -0.0000 11.0219 8.8053 -29.4033 -4.3490 -7.1250 0.0000 -0.0000 -12.7831 0.9224 12.9027 0.0000 -0.0000 0.0000 91.8136 -18.3678 17.7633 -22.5768 33.6228 -6.9025 0.0000 0.0000 16.9736 -9.1923 -26.2617 4.0956 7.1250 -0.0000 -0.0000 22.0712 -55.1419 -5.7004
-1.0483 18.1503 5.7518 -3.8823 -2.6421 -0.5469 0.0000 0.0000 0.0000 -12.9323 -2.3288 19.9121 0.8653 -5.9314 -16.5854 -1.0121 18.1715 -12.2231 0.2903 -3.4651 -9.5764 0.0000 0.0000 0.0000 19.1986 -6.3524 7.8799 0.0000 0.0000 -0.0000 -0.7540 -1.1967 -16.8784 -0.1509 -2.5028 6.8975 2.2446 1.0298 2.0358 0.7825 1.4638 -1.4065 -0.5155 0.6977 -2.5495 -3.3076 -2.4538 -6.4193 2.4562 -3.3590 17.3581 1.0810 -1.6491 6.4223 0.0000 0.0000 0.0000 -92.7719 12.4922 23.7080 19.9874 -30.6272 -5.5250 -0.0000 -0.0000 10.9406 8.7456 -29.4657 -4.3274 -7.1250 0.0000 -0.0000 -12.8205 0.8687 12.9548 0.0000 0.0000 0.0000 91.8073 -18.4111 17.7785 -22.5820 33.6285 -6.9054 0.0000 0.0000 16.9671 -9.2118 -26.3117 4.1116 7.1250 -0.0000 -0.0000 22.0833 -55.1919 -5.7312
-1.0501 18.1500 5.7507 -3.8941 -2.6210 -0.5669 0.0000 0.0000 0.0000 -12.9051 -2.3019 19.9140 0.8652 -5.9311 -16.5845 -1.0064 18.1155 -12.1583 0.3009 -3.5272 -9.7500 0.0000 0.0000 0.0000 19.2179 -6.3813 7.8925 0.0000 0.0000 -0.0000 -0.7537 -1.1939 -16.8749 -0.1511 -2.5049 6.9033 2.2615 1.0382 2.0504 0.7812 1.4759 -1.4065 -0.5271 0.7033 -2.5570 -3.3307 -2.4641 -6.4108 2.4778 -3.3741 17.3607 1.0907 -1.6563 6.4229 0.0000 0.0000 0.0000 -92.7354 12.5222 23.7589 20.0276 -30.6756 -5.5454 -0.0000 -0.0000 10.9662 8.6192 -29.4691 -4.2646 -7.1250 0.0000 -0.0000 -12.8934 0.8806 13.0296 0.0000 0.0000 0.0000 91.8043 -18.4361 17.7751 -22.5785 33.6246 -6.9035 0.0000 0.0000 16.9951 -9.2944 -26.1847 4.1305 7.1250 -0.0000 -0.0000 21.9229 -55.0903 -5.6312
-1.0517 18.1491 5.7496 -3.9100 -2.5860 -0.5878 0.0000 0.0000 0.0000 -12.8750 -2.2852 19.9306 0.8672 -5.9378 -16.6041 -1.0065 18.0958 -12.0701 0.3046 -3.5482 -9.8088 0.0000 0.0000 0.0000 19.2406 -6.4233 7.9010 0.0000 0.0000 0.0000 -0.7531 -1.2200 -16.8788 -0.1450 -2.4540 6.7622 2.2650 1.0396 2.0414 0.7960 1.4777 -1.3929 -0.5136 0.7046 -2.5382 -3.3240 -2.5549 -6.5040 2.6445 -3.5291 17.4901 1.1294 -1.7169 6.4879 0.0000 0.0000 0.0000 -92.7508 12.5205 23.7622 20.0726 -30.7297 -5.5684 -0.0000 -0.0000 10.9804 8.5136 -29.4113 -4.2043 -7.1250 0.0000 -0.0000 -12.9516 0.9494 13.0755 0.0000 0.0000 0.0000 91.7710 -18.4410 17.8030 -22.5847 33.6315 -6.9069 0.0000 0.0000 16.9840 -9.4221 -25.9916 4.1594 7.1250 -0.0000 -0.0000 21.6782 -54.9361 -5.4808
-1.0527 18.1476 5.7489 -3.9369 -2.5338 -0.6034 0.0000 0.0000 0.0000 -12.8360 -2.2692 19.9300 0.8690 -5.9439 -16.6219 -1.0071 18.0842 -11.9995 0.3106 -3.5830 -9.9064 0.0000 0.0000 0.0000 19.2734 -6.4812 7.9034 0.0000 0.0000 -0.0000 -0.7549 -1.2158 -16.8964 -0.1419 -2.4276 6.6888 2.2872 1.0364 2.0208 0.8131 1.4735 -1.3776 -0.5077 0.7026 -2.5108 -3.3382 -2.6182 -6.5428 2.7225 -3.6279 17.5342 1.1483 -1.7590 6.5136 0.0000 0.0000 0.0000 -92.7803 12.5173 23.7708 20.0983 -30.7606 -5.5816 -0.0000 -0.0000 10.9085 8.4991 -29.3476 -4.1888 -7.1250 0.0000 -0.0000 -12.9571 1.0133 13.0664 0.0000 0.0000 0.0000 91.7468 -18.4023 17.7831 -22.5761 33.6220 -6.9021 0.0000 0.0000 17.0272 -9.3305 -26.0505 4.1271 7.1250 -0.0000 -0.0000 21.8044 -54.9732 -5.5352
-1.0536 18.1465 5.7488 -3.9543 -2.4620 -0.6137 0.0000 0.0000 0.0000 -12.8052 -2.2530 19.9191 0.8704 -5.9484 -16.6347 -1.0032 18.0411 -11.9357 0.3168 -3.6180 -10.0044 0.0000 0.0000 0.0000 19.2915 -6.5570 7.9017 0.0000 -0.0000 0.0000 -0.7579 -1.1606 -16.9059 -0.1482 -2.4805 6.8357 2.3242 1.0336 2.0059 0.8134 1.4702 -1.3616 -0.5274 0.7007 -2.4853 -3.3431 -2.6479 -6.5269 2.7105 -3.6646 17.4691 1.1428 -1.7782 6.4911 -0.0000 -0.0000 0.0000 -92.7852 12.4914 23.7913 20.0943 -30.7558 -5.5795 -0.0000 -0.0000 10.8652 8.5384 -29.3191 -4.2047 -7.1250 0.0000 -0.0000 -12.9331 1.0365 13.0355 -0.0000 -0.0000 0.0000 91.7575 -18.3293 17.7013 -22.5544 33.5979 -6.8901 0.0000 0.0000 17.1336 -9.1766 -26.2128 4.0815 7.1250 -0.0000 -0.0000 22.0561 -55.0937 -5.6699
-1.0550 18.1461 5.7492 -3.9346 -2.4001 -0.6175 0.0000 0.0000 0.0000 -12.8107 -2.2283 19.9086 0.8723 -5.9546 -16.6528 -0.9984 17.9888 -11.8569 0.3253 -3.6656 -10.1379 0.0000 0.0000 0.0000 19.2691 -6.6185 7.8932 0.0000 -0.0000 0.0000 -0.7566 -1.1341 -16.8807 -0.1507 -2.5018 6.8946 2.3202 1.0353 1.9876 0.8011 1.4711 -1.3479 -0.5373 0.7015 -2.4606 -3.3487 -2.6635 -6.5476 2.7210 -3.6859 17.4472 1.1452 -1.7879 6.4888 -0.0000 -0.0000 0.0000 -92.7735 12.4586 23.8044 20.0925 -30.7536 -5.5786 -0.0000 -0.0000 10.8915 8.5426 -29.3291 -4.2081 -7.1250 0.0000 -0.0000 -12.9312 1.0262 13.0358 -0.0000 -0.0000 0.0000 91.7813 -18.2721 17.6350 -22.5408 33.5828 -6.8826 0.0000 0.0000 17.1885 -9.2766 -26.0671 4.1053 7.1250 -0.0000 -0.0000 21.8676 -54.9782 -5.5551
-1.0563 18.1462 5.7494 -3.9347 -2.3416 -0.6198 0.0000 0.0000 0.0000 -12.7949 -2.2161 19.9007 0.8739 -5.9601 -16.6687 -0.9957 17.9495 -11.7686 0.3385 -3.7386 -10.3425 0.0000 0.0000 0.0000 19.2720 -6.6766 7.8805 0.0000 0.0000 -0.0000 -0.7527 -1.1441 -16.8426 -0.1523 -2.5147 6.9305 2.3248 1.0350 1.9727 0.7997 1.4704 -1.3462 -0.5409 0.7012 -2.4503 -3.3677 -2.6655 -6.5617 2.7577 -3.6922 17.4570 1.1593 -1.7891 6.4956 0.0000 0.0000 0.0000 -92.7761 12.4494 23.7919 20.0938 -30.7552 -5.5792 -0.0000 -0.0000 10.9245 8.5607 -29.3504 -4.2199 -7.1250 0.0000 -0.0000 -12.9216 1.0032 13.0311 0.0000 0.0000 0.0000 91.7942 -18.2503 17.6043 -22.5321 33.5731 -6.8778 0.0000 0.0000 17.2340 -9.4626 -25.8521 4.1568 7.1250 -0.0000 -0.0000 21.5534 -54.8145 -5.3819
-1.0577 18.1467 5.7495 -3.9569 -2.2812 -0.6213 0.0000 0.0000 0.0000 -12.7644 -2.2774 19.9183 0.8749 -5.9633 -16.6779 -0.9954 17.9485 -11.7752 0.3317 -3.7015 -10.2384 0.0000 0.0000 0.0000 19.2984 -6.7389 7.8728 0.0000 0.0000 -0.0000 -0.7536 -1.0998 -16.8333 -0.1678 -2.6392 7.2758 2.3536 1.0321 1.9774 0.8023 1.4680 -1.3664 -0.5546 0.6991 -2.4732 -3.3559 -2.6613 -6.5440 2.7632 -3.6898 17.4738 1.1595 -1.7868 6.4976 0.0000 -0.0000 0.0000 -92.7719 12.4676 23.7882 20.0809 -30.7397 -5.5726 -0.0000 -0.0000 10.9181 8.5857 -29.3896 -4.2375 -7.1250 0.0000 -0.0000 -12.9090 0.9620 13.0273 0.0000 -0.0000 0.0000 91.7951 -18.2508 17.5916 -22.5298 33.5706 -6.8765 0.0000 0.0000 17.2855 -9.5405 -25.9775 4.2104 7.1250 -0.0000 -0.0000 21.5533 -54.9456 -5.4521
-1.0585 18.1469 5.7501 -3.9251 -2.2402 -0.6338 0.0000 0.0000 0.0000 -12.8020 -2.3373 19.9585 0.8769 -5.9701 -16.6977 -0.9962 17.9658 -11.8249 0.3222 -3.6484 -10.0896 0.0000 0.0000 0.0000 19.2582 -6.7847 7.8859 0.0000 0.0000 -0.0000 -0.7593 -1.0221 -16.8624 -0.1880 -2.7928 7.7023 2.3311 1.0272 1.9953 0.7905 1.4616 -1.3908 -0.5545 0.6957 -2.5088 -3.3324 -2.6507 -6.5279 2.7433 -3.6764 17.5186 1.1505 -1.7804 6.5078 -0.0000 -0.0000 0.0000 -92.7511 12.4971 23.8338 20.0776 -30.7357 -5.5709 -0.0000 -0.0000 10.8204 8.5510 -29.3930 -4.2206 -7.1250 0.0000 -0.0000 -12.9292 0.9629 13.0485 -0.0000 -0.0000 0.0000 91.7880 -18.2627 17.6099 -22.5343 33.5756 -6.8790 0.0000 0.0000 17.2815 -9.5137 -26.2224 4.2350 7.1250 -0.0000 -0.0000 21.7305 -55.1674 -5.6198
